<svg width="302" height="186" viewBox="0 0 302 186" fill="none" xmlns="http://www.w3.org/2000/svg">
<path d="M61.7463 93.3518H1V46.3081H61.7463V93.3518ZM1.85534 92.4965H60.8909V47.1634H1.85534V92.4965Z" fill="#007EFF"/>
<path d="M121.672 47.1636H60.9253V0.119873H121.672V47.1636ZM61.7806 46.3083H120.816V0.975214H61.7806V46.3083Z" fill="#007EFF"/>
<path d="M181.836 93.3518H151.027V46.3081H181.836V93.3518ZM151.882 92.4965H180.981V47.1634H151.882V92.4965Z" fill="#007EFF"/>
<path d="M151.882 93.3518H121.073V46.3081H151.882V93.3518ZM121.928 92.4965H151.027V47.1634H121.928V92.4965Z" fill="#007EFF"/>
<path d="M181.836 139.985L120.251 92.4966H181.836V139.985ZM122.766 93.3519L180.981 138.24V93.3519H122.766Z" fill="#007EFF"/>
<path d="M182.657 139.557H121.073V92.0688L182.657 139.557ZM121.928 138.702H180.143L121.928 93.8137V138.702Z" fill="#007EFF"/>
<path d="M61.7807 139.557H54.7498L54.6301 139.472L31.0569 121.304L7.38105 139.575H1.03442V133.963L24.2484 116.053L1.03442 98.1076V92.4966H7.39816L7.51791 92.5821L31.074 110.75L54.7498 92.4966H61.7807V97.5944L37.8996 116.018L61.7807 134.442V139.54V139.557ZM55.0406 138.702H60.9254V134.87L36.4968 116.018L60.9254 97.1667V93.3348H55.0406L31.074 111.827L7.10734 93.3348H1.88976V97.6799L25.6511 116.018L1.88976 134.357V138.702H7.10734L31.074 120.21L55.0406 138.702Z" fill="#007EFF"/>
<path d="M76.7491 139.557H60.9253V127.155H76.7491V139.557ZM61.7806 138.702H75.8938V128.01H61.7806V138.702Z" fill="#007EFF"/>
<path d="M106.703 139.557H90.8794V127.155H106.703V139.557ZM91.7347 138.702H105.848V128.01H91.7347V138.702Z" fill="#007EFF"/>
<path d="M91.7344 139.557H75.9106V127.155H91.7344V139.557ZM76.766 138.702H90.8791V128.01H76.766V138.702Z" fill="#007EFF"/>
<path d="M121.671 139.557H105.848V127.155H121.671V139.557ZM106.703 138.702H120.816V128.01H106.703V138.702Z" fill="#007EFF"/>
<path d="M121.671 127.993H105.848V115.591H121.671V127.993ZM106.703 127.138H120.816V116.446H106.703V127.138Z" fill="#007EFF"/>
<path d="M121.671 116.446H105.848V104.044H121.671V116.446ZM106.703 115.591H120.816V104.899H106.703V115.591Z" fill="#007EFF"/>
<path d="M121.671 104.899H105.848V92.4966H121.671V104.899ZM106.703 104.044H120.816V93.3519H106.703V104.044Z" fill="#007EFF"/>
<path d="M76.7491 116.446H60.9253V104.044H76.7491V116.446ZM61.7806 115.591H75.8938V104.899H61.7806V115.591Z" fill="#007EFF"/>
<path d="M76.7491 127.993H60.9253V115.591H76.7491V127.993ZM61.7806 127.138H75.8938V116.446H61.7806V127.138Z" fill="#007EFF"/>
<path d="M91.7344 104.899H75.9106V92.4966H91.7344V104.899ZM76.766 104.044H90.8791V93.3519H76.766V104.044Z" fill="#007EFF"/>
<path d="M76.7491 104.899H60.9253V92.4966H76.7491V104.899ZM61.7806 104.044H75.8938V93.3519H61.7806V104.044Z" fill="#007EFF"/>
<path d="M91.7344 116.446H75.9106V104.044H91.7344V116.446ZM76.766 115.591H90.8791V104.899H76.766V115.591Z" fill="#007EFF"/>
<path d="M106.703 104.899H90.8794V92.4966H106.703V104.899ZM91.7347 104.044H105.848V93.3519H91.7347V104.044Z" fill="#007EFF"/>
<path d="M106.703 127.993H90.8794V115.591H106.703V127.993ZM91.7347 127.138H105.848V116.446H91.7347V127.138Z" fill="#007EFF"/>
<path d="M91.7344 127.993H75.9106V115.591H91.7344V127.993ZM76.766 127.138H90.8791V116.446H76.766V127.138Z" fill="#007EFF"/>
<path d="M131.918 47.1636H121.073V0.119873H131.918V47.1636ZM121.928 46.3083H131.063V0.975214H121.928V46.3083Z" fill="#007EFF"/>
<path d="M151.882 47.1636H141.036V0.119873H151.882V47.1636ZM141.892 46.3083H151.027V0.975214H141.892V46.3083Z" fill="#007EFF"/>
<path d="M141.892 47.1636H131.063V0.119873H141.892V47.1636ZM131.918 46.3083H141.036V0.975214H131.918V46.3083Z" fill="#007EFF"/>
<path d="M171.846 47.1636H161V0.119873H171.846V47.1636ZM161.855 46.3083H170.99V0.975214H161.855V46.3083Z" fill="#007EFF"/>
<path d="M161.855 47.1636H151.027V0.119873H161.855V47.1636ZM151.882 46.3083H161V0.975214H151.882V46.3083Z" fill="#007EFF"/>
<path d="M181.836 47.1636H170.99V0.119873H181.836V47.1636ZM171.846 46.3083H180.981V0.975214H171.846V46.3083Z" fill="#007EFF"/>
<path d="M106.703 116.446H90.8794V104.044H106.703V116.446ZM91.7347 115.591H105.848V104.899H91.7347V115.591Z" fill="#007EFF"/>
<path d="M61.7291 47.1636H40.9272V0.119873H61.7291V47.1636ZM41.7826 46.3083H60.8738V0.975214H41.7826V46.3083Z" fill="#007EFF"/>
<path d="M21.8192 47.1636H1.03442V0.119873H21.8363V47.1636H21.8192ZM1.87266 46.3083H20.9639V0.975214H1.88976V46.3083H1.87266Z" fill="#007EFF"/>
<path d="M41.7826 47.1636H20.9807V0.119873H41.7826V47.1636ZM21.8361 46.3083H40.9273V0.975214H21.8361V46.3083Z" fill="#007EFF"/>
<path d="M61.7804 47.1636H60.9251L60.8738 46.7359V0.119873H61.7291L61.7804 0.547543V47.1636Z" fill="#007EFF"/>
<path d="M241.727 139.557H180.981V92.5137H241.727V139.557ZM181.836 138.702H240.872V93.369H181.836V138.702ZM225.253 124.23H197.472V107.807H225.253V124.23ZM198.327 123.374H224.398V108.662H198.327V123.374Z" fill="#007EFF"/>
<path d="M241.727 93.3519H210.918V69.4023H241.727V93.3519ZM211.773 92.4965H240.872V70.2577H211.773V92.4965Z" fill="#007EFF"/>
<path d="M211.773 70.2576H180.981V46.3081H211.773V70.2576ZM181.836 69.4023H210.918V47.1634H181.836V69.4023Z" fill="#007EFF"/>
<path d="M211.773 93.3519H180.981V69.4023H211.773V93.3519ZM181.836 92.4965H210.918V70.2577H181.836V92.4965Z" fill="#007EFF"/>
<path d="M241.727 70.2576H210.918V46.3081H241.727V70.2576ZM211.773 69.4023H240.872V47.1634H211.773V69.4023Z" fill="#007EFF"/>
<path d="M241.727 162.651H210.918V138.702H241.727V162.651ZM211.773 161.796H240.872V139.557H211.773V161.796Z" fill="#007EFF"/>
<path d="M211.773 185.746H180.981V161.796H211.773V185.746ZM181.836 184.89H210.918V162.651H181.836V184.89Z" fill="#007EFF"/>
<path d="M211.773 162.651H180.981V138.702H211.773V162.651ZM181.836 161.796H210.918V139.557H181.836V161.796Z" fill="#007EFF"/>
<path d="M241.727 185.746H210.918V161.796H241.727V185.746ZM211.773 184.89H240.872V162.651H211.773V184.89Z" fill="#007EFF"/>
<path d="M121.672 62.4741H60.9253V46.291H121.672V62.4741ZM61.7806 61.6187H120.816V47.1464H61.7806V61.6187Z" fill="#007EFF"/>
<path d="M121.672 93.352H60.9253V77.186H121.672V93.352ZM61.7806 92.4966H120.816V78.0414H61.7806V92.4966Z" fill="#007EFF"/>
<path d="M121.672 185.746H60.9253V138.702H121.672V185.746ZM61.7806 184.89H120.816V139.557H61.7806V184.89Z" fill="#007EFF"/>
<path d="M121.672 170.418H60.9253V154.013H121.672V170.418ZM61.7806 169.563H120.816V154.868H61.7806V169.563Z" fill="#007EFF"/>
<path d="M225.253 124.23H197.472V107.807H225.253V124.23ZM198.327 123.374H224.398V108.662H198.327V123.374Z" fill="#007EFF"/>
<path d="M1.42773 139.13V185.318H61.3187V139.13H1.42773ZM44.8448 170.007H17.9187V154.44H44.8448V170.007Z" stroke="#007EFF" stroke-width="1.03651" stroke-miterlimit="10"/>
<path d="M31.3986 84.9525C23.3071 84.9525 16.7209 78.3663 16.7209 70.2748C16.7209 62.1833 23.3071 55.5972 31.3986 55.5972C39.4901 55.5972 46.0762 62.1833 46.0762 70.2748C46.0762 78.3663 39.4901 84.9525 31.3986 84.9525ZM31.3986 56.4696C23.7861 56.4696 17.5763 62.6623 17.5763 70.2919C17.5763 77.9216 23.769 84.1142 31.3986 84.1142C39.0282 84.1142 45.2209 77.9216 45.2209 70.2919C45.2209 62.6623 39.0282 56.4696 31.3986 56.4696Z" fill="#007EFF"/>
<path d="M91.3068 47.2661L60.6514 24.497L91.2897 0L91.5634 0.205282L121.945 23.6416L91.3068 47.2661ZM62.0541 24.4627L91.2897 46.1884L120.542 23.6245L91.3068 1.07773L62.0541 24.4627Z" fill="#007EFF"/>
<path d="M152.755 185.746H121.09V162.224L152.755 185.746ZM121.945 184.89H150.171L121.945 163.917V184.89Z" fill="#007EFF"/>
<path d="M121.073 163.952V138.702H152.669L121.073 163.952ZM121.928 139.557V162.19L150.223 139.557H121.928Z" fill="#007EFF"/>
<path d="M181.836 163.096L150.206 138.702H181.836V163.096ZM152.72 139.557L180.981 161.351V139.557H152.72Z" fill="#007EFF"/>
<path d="M181.836 185.746H150.206L181.836 161.352V185.746ZM152.72 184.891H180.981V163.096L152.72 184.891Z" fill="#007EFF"/>
<path d="M61.7807 139.54H1.03442V92.4966H61.7807V139.54ZM1.88976 138.685H60.9254V93.3519H1.88976V138.685Z" fill="#007EFF"/>
<path d="M241.727 10.2129H180.981V0.119873H241.727V10.2129ZM181.836 9.35755H240.872V0.975214H181.836V9.35755Z" fill="#007EFF"/>
<path d="M241.727 19.4504H180.981V9.35742H241.727V19.4504ZM181.836 18.5951H240.872V10.2128H181.836V18.5951Z" fill="#007EFF"/>
<path d="M241.727 28.6882H180.981V18.5952H241.727V28.6882ZM181.836 27.8329H240.872V19.4506H181.836V27.8329Z" fill="#007EFF"/>
<path d="M241.727 37.9258H180.981V27.8328H241.727V37.9258ZM181.836 37.0704H240.872V28.6881H181.836V37.0704Z" fill="#007EFF"/>
<path d="M241.727 47.1636H180.981V37.0706H241.727V47.1636ZM181.836 46.3082H240.872V37.9259H181.836V46.3082Z" fill="#007EFF"/>
<path d="M301.601 139.557H240.854V92.5137H301.601V139.557ZM241.71 138.702H300.745V93.369H241.71V138.702Z" fill="#007EFF"/>
<path d="M301.618 93.3518H294.587L294.467 93.2663L270.911 75.0989L247.235 93.3518H240.872V87.7408L264.086 69.83L240.872 51.9191V46.3081H247.235L247.355 46.3936L270.928 64.5782L294.604 46.3081H301.635V51.4059L277.754 69.83L301.635 88.254V93.3518H301.618ZM294.878 92.4965H300.763V88.6817L276.334 69.83L300.763 50.9783V47.1463H294.878L270.911 65.6388L246.945 47.1463H241.727V51.4915L265.488 69.8129L241.727 88.1514V92.4965H246.945L270.911 74.004L294.878 92.4965Z" fill="#007EFF"/>
<path d="M301.567 185.746H280.765V138.702H301.567V185.746ZM281.62 184.89H300.711V139.557H281.62V184.89Z" fill="#007EFF"/>
<path d="M261.673 185.746H240.872V138.702H261.673V185.746ZM241.727 184.89H260.818V139.557H241.727V184.89Z" fill="#007EFF"/>
<path d="M281.62 185.746H260.818V138.702H281.62V185.746ZM261.674 184.89H280.765V139.557H261.674V184.89Z" fill="#007EFF"/>
<path d="M301.618 185.746H300.711V138.702H301.567L301.618 139.13V185.746Z" fill="#007EFF"/>
<path d="M301.173 46.7358V0.547363H241.282V46.7358H301.173ZM284.699 31.4252H257.773V15.858H284.699V31.4252Z" stroke="#007EFF" stroke-width="1.03651" stroke-miterlimit="10"/>
<path d="M271.253 130.234C263.162 130.234 256.576 123.648 256.576 115.557C256.576 107.465 263.162 100.879 271.253 100.879C279.345 100.879 285.931 107.465 285.931 115.557C285.931 123.648 279.345 130.234 271.253 130.234ZM271.253 101.751C263.641 101.751 257.431 107.944 257.431 115.574C257.431 123.203 263.624 129.396 271.253 129.396C278.883 129.396 285.076 123.203 285.076 115.574C285.076 107.944 278.883 101.751 271.253 101.751Z" fill="#007EFF"/>
<path d="M301.618 93.3518H240.872V46.3081H301.618V93.3518ZM241.727 92.4965H300.763V47.1634H241.727V92.4965Z" fill="#007EFF"/>
</svg>
