<svg width="1441" height="186" viewBox="0 0 1441 186" fill="none" xmlns="http://www.w3.org/2000/svg">
<path d="M61.7463 93.3518H1V46.3081H61.7463V93.3518ZM1.85534 92.4965H60.8909V47.1634H1.85534V92.4965Z" fill="#007EFF"/>
<path d="M121.672 47.1635H60.9253V0.119751H121.672V47.1635ZM61.7806 46.3081H120.816V0.975091H61.7806V46.3081Z" fill="#007EFF"/>
<path d="M181.836 93.3518H151.027V46.3081H181.836V93.3518ZM151.882 92.4965H180.981V47.1634H151.882V92.4965Z" fill="#007EFF"/>
<path d="M151.882 93.3518H121.073V46.3081H151.882V93.3518ZM121.928 92.4965H151.027V47.1634H121.928V92.4965Z" fill="#007EFF"/>
<path d="M181.836 139.985L120.251 92.4966H181.836V139.985ZM122.766 93.3519L180.981 138.24V93.3519H122.766Z" fill="#007EFF"/>
<path d="M182.657 139.557H121.073V92.0688L182.657 139.557ZM121.928 138.702H180.143L121.928 93.8137V138.702Z" fill="#007EFF"/>
<path d="M61.7807 139.557H54.7498L54.6301 139.472L31.0569 121.304L7.38105 139.575H1.03442V133.963L24.2484 116.053L1.03442 98.1076V92.4966H7.39816L7.51791 92.5821L31.074 110.75L54.7498 92.4966H61.7807V97.5944L37.8996 116.018L61.7807 134.442V139.54V139.557ZM55.0406 138.702H60.9254V134.87L36.4968 116.018L60.9254 97.1667V93.3348H55.0406L31.074 111.827L7.10734 93.3348H1.88976V97.6799L25.6511 116.018L1.88976 134.357V138.702H7.10734L31.074 120.21L55.0406 138.702Z" fill="#007EFF"/>
<path d="M76.7491 139.557H60.9253V127.155H76.7491V139.557ZM61.7806 138.702H75.8938V128.01H61.7806V138.702Z" fill="#007EFF"/>
<path d="M106.703 139.557H90.8794V127.155H106.703V139.557ZM91.7347 138.702H105.848V128.01H91.7347V138.702Z" fill="#007EFF"/>
<path d="M91.7344 139.557H75.9106V127.155H91.7344V139.557ZM76.766 138.702H90.8791V128.01H76.766V138.702Z" fill="#007EFF"/>
<path d="M121.671 139.557H105.848V127.155H121.671V139.557ZM106.703 138.702H120.816V128.01H106.703V138.702Z" fill="#007EFF"/>
<path d="M121.671 127.993H105.848V115.591H121.671V127.993ZM106.703 127.138H120.816V116.446H106.703V127.138Z" fill="#007EFF"/>
<path d="M121.671 116.446H105.848V104.044H121.671V116.446ZM106.703 115.591H120.816V104.899H106.703V115.591Z" fill="#007EFF"/>
<path d="M121.671 104.899H105.848V92.4966H121.671V104.899ZM106.703 104.044H120.816V93.3519H106.703V104.044Z" fill="#007EFF"/>
<path d="M76.7491 116.446H60.9253V104.044H76.7491V116.446ZM61.7806 115.591H75.8938V104.899H61.7806V115.591Z" fill="#007EFF"/>
<path d="M76.7491 127.993H60.9253V115.591H76.7491V127.993ZM61.7806 127.138H75.8938V116.446H61.7806V127.138Z" fill="#007EFF"/>
<path d="M91.7344 104.899H75.9106V92.4966H91.7344V104.899ZM76.766 104.044H90.8791V93.3519H76.766V104.044Z" fill="#007EFF"/>
<path d="M76.7491 104.899H60.9253V92.4966H76.7491V104.899ZM61.7806 104.044H75.8938V93.3519H61.7806V104.044Z" fill="#007EFF"/>
<path d="M91.7344 116.446H75.9106V104.044H91.7344V116.446ZM76.766 115.591H90.8791V104.899H76.766V115.591Z" fill="#007EFF"/>
<path d="M106.703 104.899H90.8794V92.4966H106.703V104.899ZM91.7347 104.044H105.848V93.3519H91.7347V104.044Z" fill="#007EFF"/>
<path d="M106.703 127.993H90.8794V115.591H106.703V127.993ZM91.7347 127.138H105.848V116.446H91.7347V127.138Z" fill="#007EFF"/>
<path d="M91.7344 127.993H75.9106V115.591H91.7344V127.993ZM76.766 127.138H90.8791V116.446H76.766V127.138Z" fill="#007EFF"/>
<path d="M131.918 47.1635H121.073V0.119751H131.918V47.1635ZM121.928 46.3081H131.063V0.975091H121.928V46.3081Z" fill="#007EFF"/>
<path d="M151.882 47.1635H141.036V0.119751H151.882V47.1635ZM141.892 46.3081H151.027V0.975091H141.892V46.3081Z" fill="#007EFF"/>
<path d="M141.892 47.1635H131.063V0.119751H141.892V47.1635ZM131.918 46.3081H141.036V0.975091H131.918V46.3081Z" fill="#007EFF"/>
<path d="M171.846 47.1635H161V0.119751H171.846V47.1635ZM161.855 46.3081H170.99V0.975091H161.855V46.3081Z" fill="#007EFF"/>
<path d="M161.855 47.1635H151.027V0.119751H161.855V47.1635ZM151.882 46.3081H161V0.975091H151.882V46.3081Z" fill="#007EFF"/>
<path d="M181.836 47.1635H170.99V0.119751H181.836V47.1635ZM171.846 46.3081H180.981V0.975091H171.846V46.3081Z" fill="#007EFF"/>
<path d="M106.703 116.446H90.8794V104.044H106.703V116.446ZM91.7347 115.591H105.848V104.899H91.7347V115.591Z" fill="#007EFF"/>
<path d="M61.7291 47.1635H40.9272V0.119751H61.7291V47.1635ZM41.7826 46.3081H60.8738V0.975091H41.7826V46.3081Z" fill="#007EFF"/>
<path d="M21.8192 47.1636H1.03442V0.119873H21.8363V47.1636H21.8192ZM1.87266 46.3083H20.9639V0.975214H1.88976V46.3083H1.87266Z" fill="#007EFF"/>
<path d="M41.7826 47.1635H20.9807V0.119751H41.7826V47.1635ZM21.8361 46.3081H40.9273V0.975091H21.8361V46.3081Z" fill="#007EFF"/>
<path d="M61.7804 47.1635H60.9251L60.8738 46.7358V0.119751H61.7291L61.7804 0.547421V47.1635Z" fill="#007EFF"/>
<path d="M241.727 139.557H180.981V92.5137H241.727V139.557ZM181.836 138.702H240.872V93.369H181.836V138.702ZM225.253 124.23H197.472V107.807H225.253V124.23ZM198.327 123.374H224.398V108.662H198.327V123.374Z" fill="#007EFF"/>
<path d="M241.727 93.3519H210.918V69.4023H241.727V93.3519ZM211.773 92.4965H240.872V70.2577H211.773V92.4965Z" fill="#007EFF"/>
<path d="M211.773 70.2576H180.981V46.3081H211.773V70.2576ZM181.836 69.4023H210.918V47.1634H181.836V69.4023Z" fill="#007EFF"/>
<path d="M211.773 93.3519H180.981V69.4023H211.773V93.3519ZM181.836 92.4965H210.918V70.2577H181.836V92.4965Z" fill="#007EFF"/>
<path d="M241.727 70.2576H210.918V46.3081H241.727V70.2576ZM211.773 69.4023H240.872V47.1634H211.773V69.4023Z" fill="#007EFF"/>
<path d="M241.727 162.652H210.918V138.702H241.727V162.652ZM211.773 161.796H240.872V139.557H211.773V161.796Z" fill="#007EFF"/>
<path d="M211.773 185.746H180.981V161.796H211.773V185.746ZM181.836 184.89H210.918V162.651H181.836V184.89Z" fill="#007EFF"/>
<path d="M211.773 162.652H180.981V138.702H211.773V162.652ZM181.836 161.796H210.918V139.557H181.836V161.796Z" fill="#007EFF"/>
<path d="M241.727 185.746H210.918V161.796H241.727V185.746ZM211.773 184.89H240.872V162.651H211.773V184.89Z" fill="#007EFF"/>
<path d="M121.672 62.4741H60.9253V46.291H121.672V62.4741ZM61.7806 61.6187H120.816V47.1464H61.7806V61.6187Z" fill="#007EFF"/>
<path d="M121.672 93.3518H60.9253V77.1859H121.672V93.3518ZM61.7806 92.4965H120.816V78.0413H61.7806V92.4965Z" fill="#007EFF"/>
<path d="M121.672 185.746H60.9253V138.702H121.672V185.746ZM61.7806 184.89H120.816V139.557H61.7806V184.89Z" fill="#007EFF"/>
<path d="M121.672 170.418H60.9253V154.013H121.672V170.418ZM61.7806 169.563H120.816V154.868H61.7806V169.563Z" fill="#007EFF"/>
<path d="M225.253 124.23H197.472V107.807H225.253V124.23ZM198.327 123.374H224.398V108.662H198.327V123.374Z" fill="#007EFF"/>
<path d="M1.42773 139.13V185.318H61.3187V139.13H1.42773ZM44.8448 170.007H17.9187V154.44H44.8448V170.007Z" stroke="#007EFF" stroke-width="1.03651" stroke-miterlimit="10"/>
<path d="M31.3986 84.9525C23.3071 84.9525 16.7209 78.3663 16.7209 70.2748C16.7209 62.1833 23.3071 55.5972 31.3986 55.5972C39.4901 55.5972 46.0762 62.1833 46.0762 70.2748C46.0762 78.3663 39.4901 84.9525 31.3986 84.9525ZM31.3986 56.4696C23.7861 56.4696 17.5763 62.6623 17.5763 70.2919C17.5763 77.9216 23.769 84.1142 31.3986 84.1142C39.0282 84.1142 45.2209 77.9216 45.2209 70.2919C45.2209 62.6623 39.0282 56.4696 31.3986 56.4696Z" fill="#007EFF"/>
<path d="M91.3068 47.2661L60.6514 24.497L91.2897 0L91.5634 0.205282L121.945 23.6416L91.3068 47.2661ZM62.0541 24.4627L91.2897 46.1884L120.542 23.6245L91.3068 1.07773L62.0541 24.4627Z" fill="#007EFF"/>
<path d="M152.755 185.746H121.09V162.224L152.755 185.746ZM121.945 184.89H150.171L121.945 163.917V184.89Z" fill="#007EFF"/>
<path d="M121.073 163.952V138.702H152.669L121.073 163.952ZM121.928 139.557V162.19L150.223 139.557H121.928Z" fill="#007EFF"/>
<path d="M181.836 163.096L150.206 138.702H181.836V163.096ZM152.72 139.557L180.981 161.351V139.557H152.72Z" fill="#007EFF"/>
<path d="M181.836 185.746H150.206L181.836 161.351V185.746ZM152.72 184.89H180.981V163.096L152.72 184.89Z" fill="#007EFF"/>
<path d="M61.7807 139.54H1.03442V92.4966H61.7807V139.54ZM1.88976 138.685H60.9254V93.3519H1.88976V138.685Z" fill="#007EFF"/>
<path d="M241.727 10.2128H180.981V0.119751H241.727V10.2128ZM181.836 9.35743H240.872V0.975092H181.836V9.35743Z" fill="#007EFF"/>
<path d="M241.727 19.4504H180.981V9.35742H241.727V19.4504ZM181.836 18.5951H240.872V10.2128H181.836V18.5951Z" fill="#007EFF"/>
<path d="M241.727 28.6881H180.981V18.5951H241.727V28.6881ZM181.836 27.8328H240.872V19.4504H181.836V27.8328Z" fill="#007EFF"/>
<path d="M241.727 37.9258H180.981V27.8328H241.727V37.9258ZM181.836 37.0704H240.872V28.6881H181.836V37.0704Z" fill="#007EFF"/>
<path d="M241.727 47.1635H180.981V37.0704H241.727V47.1635ZM181.836 46.3081H240.872V37.9258H181.836V46.3081Z" fill="#007EFF"/>
<path d="M301.601 139.557H240.854V92.5137H301.601V139.557ZM241.71 138.702H300.745V93.369H241.71V138.702Z" fill="#007EFF"/>
<path d="M361.526 185.746H300.78V138.702H361.526V185.746ZM301.635 184.89H360.671V139.557H301.635V184.89Z" fill="#007EFF"/>
<path d="M421.674 139.54H390.864V92.4966H421.674V139.54ZM391.72 138.685H420.818V93.3519H391.72V138.685Z" fill="#007EFF"/>
<path d="M391.72 139.54H360.91V92.4966H391.72V139.54ZM361.765 138.685H390.864V93.3519H361.765V138.685Z" fill="#007EFF"/>
<path d="M421.674 93.3519H360.089L421.674 45.8634V93.3519ZM362.604 92.4966H420.818V47.6083L362.604 92.4966Z" fill="#007EFF"/>
<path d="M360.927 93.7966V46.3081H422.512L360.927 93.7966ZM361.783 47.1634V92.0517L419.997 47.1634H361.783Z" fill="#007EFF"/>
<path d="M301.618 93.3518H294.587L294.467 93.2663L270.911 75.0989L247.235 93.3518H240.872V87.7408L264.086 69.83L240.872 51.9191V46.3081H247.235L247.355 46.3936L270.928 64.5782L294.604 46.3081H301.635V51.4059L277.754 69.83L301.635 88.254V93.3518H301.618ZM294.878 92.4965H300.763V88.6817L276.334 69.83L300.763 50.9783V47.1463H294.878L270.911 65.6388L246.945 47.1463H241.727V51.4915L265.488 69.8129L241.727 88.1514V92.4965H246.945L270.911 74.004L294.878 92.4965Z" fill="#007EFF"/>
<path d="M316.604 58.7105H300.78V46.3081H316.604V58.7105ZM301.635 57.8552H315.748V47.1634H301.635V57.8552Z" fill="#007EFF"/>
<path d="M346.54 58.7105H330.717V46.3081H346.54V58.7105ZM331.572 57.8552H345.685V47.1634H331.572V57.8552Z" fill="#007EFF"/>
<path d="M331.572 58.7105H315.748V46.3081H331.572V58.7105ZM316.604 57.8552H330.717V47.1634H316.604V57.8552Z" fill="#007EFF"/>
<path d="M361.526 58.7105H345.702V46.3081H361.526V58.7105ZM346.557 57.8552H360.671V47.1634H346.557V57.8552Z" fill="#007EFF"/>
<path d="M361.526 70.2577H345.702V57.8552H361.526V70.2577ZM346.557 69.4023H360.671V58.7106H346.557V69.4023Z" fill="#007EFF"/>
<path d="M361.526 81.8048H345.702V69.4023H361.526V81.8048ZM346.557 80.9494H360.671V70.2577H346.557V80.9494Z" fill="#007EFF"/>
<path d="M361.526 93.3519H345.702V80.9495H361.526V93.3519ZM346.557 92.4966H360.671V81.8048H346.557V92.4966Z" fill="#007EFF"/>
<path d="M316.604 81.8048H300.78V69.4023H316.604V81.8048ZM301.635 80.9494H315.748V70.2577H301.635V80.9494Z" fill="#007EFF"/>
<path d="M316.604 70.2577H300.78V57.8552H316.604V70.2577ZM301.635 69.4023H315.748V58.7106H301.635V69.4023Z" fill="#007EFF"/>
<path d="M331.572 93.3519H315.748V80.9495H331.572V93.3519ZM316.604 92.4966H330.717V81.8048H316.604V92.4966Z" fill="#007EFF"/>
<path d="M316.604 93.3519H300.78V80.9495H316.604V93.3519ZM301.635 92.4966H315.748V81.8048H301.635V92.4966Z" fill="#007EFF"/>
<path d="M331.572 81.8048H315.748V69.4023H331.572V81.8048ZM316.604 80.9494H330.717V70.2577H316.604V80.9494Z" fill="#007EFF"/>
<path d="M346.54 93.3519H330.717V80.9495H346.54V93.3519ZM331.572 92.4966H345.685V81.8048H331.572V92.4966Z" fill="#007EFF"/>
<path d="M346.54 70.2577H330.717V57.8552H346.54V70.2577ZM331.572 69.4023H345.685V58.7106H331.572V69.4023Z" fill="#007EFF"/>
<path d="M331.572 70.2577H315.748V57.8552H331.572V70.2577ZM316.604 69.4023H330.717V58.7106H316.604V69.4023Z" fill="#007EFF"/>
<path d="M371.756 185.746H360.91V138.702H371.756V185.746ZM361.765 184.89H370.901V139.557H361.765V184.89Z" fill="#007EFF"/>
<path d="M391.72 185.746H380.874V138.702H391.72V185.746ZM381.729 184.89H390.864V139.557H381.729V184.89Z" fill="#007EFF"/>
<path d="M381.746 185.746H370.918V138.702H381.746V185.746ZM371.773 184.89H380.891V139.557H371.773V184.89Z" fill="#007EFF"/>
<path d="M411.683 185.746H400.837V138.702H411.683V185.746ZM401.693 184.89H410.828V139.557H401.693V184.89Z" fill="#007EFF"/>
<path d="M401.71 185.746H390.881V138.702H401.71V185.746ZM391.737 184.89H400.855V139.557H391.737V184.89Z" fill="#007EFF"/>
<path d="M421.674 185.746H410.828V138.702H421.674V185.746ZM411.683 184.89H420.818V139.557H411.683V184.89Z" fill="#007EFF"/>
<path d="M346.54 81.8048H330.717V69.4023H346.54V81.8048ZM331.572 80.9494H345.685V70.2577H331.572V80.9494Z" fill="#007EFF"/>
<path d="M301.567 185.746H280.765V138.702H301.567V185.746ZM281.62 184.89H300.711V139.557H281.62V184.89Z" fill="#007EFF"/>
<path d="M261.673 185.746H240.872V138.702H261.673V185.746ZM241.727 184.89H260.818V139.557H241.727V184.89Z" fill="#007EFF"/>
<path d="M281.62 185.746H260.818V138.702H281.62V185.746ZM261.674 184.89H280.765V139.557H261.674V184.89Z" fill="#007EFF"/>
<path d="M301.618 185.746H300.711V138.702H301.567L301.618 139.13V185.746Z" fill="#007EFF"/>
<path d="M481.565 93.3518H420.818V46.3081H481.565V93.3518ZM421.674 92.4965H480.709V47.1634H421.674V92.4965ZM465.091 78.0412H437.309V61.6358H465.091V78.0412ZM438.165 77.1859H464.235V62.4911H438.165V77.1859Z" fill="#007EFF"/>
<path d="M481.565 116.446H450.755V92.4966H481.565V116.446ZM451.611 115.591H480.709V93.3519H451.611V115.591Z" fill="#007EFF"/>
<path d="M451.628 139.54H420.835V115.591H451.628V139.54ZM421.691 138.685H450.772V116.446H421.691V138.685Z" fill="#007EFF"/>
<path d="M451.628 116.446H420.835V92.4966H451.628V116.446ZM421.691 115.591H450.772V93.3519H421.691V115.591Z" fill="#007EFF"/>
<path d="M481.565 139.54H450.755V115.591H481.565V139.54ZM451.611 138.685H480.709V116.446H451.611V138.685Z" fill="#007EFF"/>
<path d="M481.565 47.1635H450.755V23.214H481.565V47.1635ZM451.611 46.3082H480.709V24.0693H451.611V46.3082Z" fill="#007EFF"/>
<path d="M451.628 24.0693H420.835V0.119751H451.628V24.0693ZM421.691 23.2139H450.772V0.975091H421.691V23.2139Z" fill="#007EFF"/>
<path d="M451.628 47.1635H420.835V23.214H451.628V47.1635ZM421.691 46.3082H450.772V24.0693H421.691V46.3082Z" fill="#007EFF"/>
<path d="M481.565 24.0693H450.755V0.119751H481.565V24.0693ZM451.611 23.2139H480.709V0.975091H451.611V23.2139Z" fill="#007EFF"/>
<path d="M361.526 139.557H300.763V123.374H361.526V139.557ZM301.618 138.702H360.671V124.23H301.618V138.702Z" fill="#007EFF"/>
<path d="M361.526 108.663H300.763V92.4966H361.526V108.663ZM301.618 107.807H360.671V93.3519H301.618V107.807Z" fill="#007EFF"/>
<path d="M361.526 47.1635H300.78V0.119751H361.526V47.1635ZM301.635 46.3081H360.671V0.975091H301.635V46.3081Z" fill="#007EFF"/>
<path d="M361.526 31.8357H300.78V15.4303H361.526V31.8357ZM301.635 30.9804H360.671V16.2856H301.635V30.9804Z" fill="#007EFF"/>
<path d="M465.091 78.0413H437.31V61.6359H465.091V78.0413ZM438.165 77.186H464.236V62.4912H438.165V77.186Z" fill="#007EFF"/>
<path d="M301.173 46.7359V0.547485H241.282V46.7359H301.173ZM284.699 31.4253H257.773V15.8581H284.699V31.4253Z" stroke="#007EFF" stroke-width="1.03651" stroke-miterlimit="10"/>
<path d="M271.253 130.234C263.162 130.234 256.576 123.648 256.576 115.557C256.576 107.465 263.162 100.879 271.253 100.879C279.345 100.879 285.931 107.465 285.931 115.557C285.931 123.648 279.345 130.234 271.253 130.234ZM271.253 101.751C263.641 101.751 257.431 107.944 257.431 115.574C257.431 123.203 263.624 129.396 271.253 129.396C278.883 129.396 285.076 123.203 285.076 115.574C285.076 107.944 278.883 101.751 271.253 101.751Z" fill="#007EFF"/>
<path d="M331.144 185.848L330.888 185.643L300.506 161.351L331.162 138.582L361.8 162.207L331.144 185.848ZM301.909 161.369L331.162 184.754L360.397 162.207L331.144 139.643L301.909 161.369Z" fill="#007EFF"/>
<path d="M360.927 23.6416V0.119751H392.592L360.927 23.6416ZM361.783 0.975091V21.948L390.009 0.975091H361.783Z" fill="#007EFF"/>
<path d="M392.524 47.1635H360.927V21.9138L392.524 47.1635ZM361.783 46.3081H390.077L361.783 23.6929V46.3081Z" fill="#007EFF"/>
<path d="M421.674 47.1635H390.043L421.674 22.7692V47.1635ZM392.558 46.3081H420.818V24.5141L392.558 46.3081Z" fill="#007EFF"/>
<path d="M421.674 24.5141L390.043 0.119751H421.674V24.5141ZM392.558 0.975091L420.818 22.7692V0.975091H392.558Z" fill="#007EFF"/>
<path d="M301.618 93.3518H240.872V46.3081H301.618V93.3518ZM241.727 92.4965H300.763V47.1634H241.727V92.4965Z" fill="#007EFF"/>
<path d="M481.565 185.746H420.818V175.653H481.565V185.746ZM421.674 184.89H480.709V176.508H421.674V184.89Z" fill="#007EFF"/>
<path d="M481.565 176.508H420.818V166.415H481.565V176.508ZM421.674 175.653H480.709V167.27H421.674V175.653Z" fill="#007EFF"/>
<path d="M481.565 167.27H420.818V157.177H481.565V167.27ZM421.674 166.415H480.709V158.033H421.674V166.415Z" fill="#007EFF"/>
<path d="M481.565 158.033H420.818V147.94H481.565V158.033ZM421.674 157.177H480.709V148.795H421.674V157.177Z" fill="#007EFF"/>
<path d="M481.565 148.778H420.818V138.685H481.565V148.778ZM421.674 147.923H480.709V139.54H421.674V147.923Z" fill="#007EFF"/>
<path d="M541.456 139.557H480.709V92.5137H541.456V139.557ZM481.565 138.702H540.6V93.369H481.565V138.702Z" fill="#007EFF"/>
<path d="M601.381 185.746H540.634V138.702H601.381V185.746ZM541.49 184.89H600.525V139.557H541.49V184.89Z" fill="#007EFF"/>
<path d="M661.545 139.557H630.736V92.5137H661.545V139.557ZM631.591 138.702H660.69V93.369H631.591V138.702Z" fill="#007EFF"/>
<path d="M631.591 139.557H600.782V92.5137H631.591V139.557ZM601.637 138.702H630.736V93.369H601.637V138.702Z" fill="#007EFF"/>
<path d="M661.545 93.3519H599.961L661.545 45.8634V93.3519ZM602.476 92.4966H660.69V47.6083L602.476 92.4966Z" fill="#007EFF"/>
<path d="M600.782 93.7966V46.3081H662.366L600.782 93.7966ZM601.637 47.1634V92.0517L659.852 47.1634H601.637Z" fill="#007EFF"/>
<path d="M541.489 93.3518H534.459L534.339 93.2663L510.783 75.0989L487.107 93.3689H480.743V87.7579L503.957 69.8471L480.743 51.9362V46.3252H487.107L487.227 46.4107L510.8 64.5782L534.476 46.3081H541.507V51.4059L517.625 69.83L541.507 88.254V93.3518H541.489ZM534.749 92.4965H540.634V88.6646L516.206 69.8129L540.634 50.9612V47.1463H534.749L510.783 65.6388L486.816 47.1463H481.599V51.4915L505.36 69.83L481.599 88.1685V92.5136H486.816L510.783 74.0211L534.749 92.5136V92.4965Z" fill="#007EFF"/>
<path d="M556.458 58.7105H540.634V46.3081H556.458V58.7105ZM541.49 57.8552H555.603V47.1634H541.49V57.8552Z" fill="#007EFF"/>
<path d="M586.412 58.7105H570.588V46.3081H586.412V58.7105ZM571.444 57.8552H585.557V47.1634H571.444V57.8552Z" fill="#007EFF"/>
<path d="M571.444 58.7105H555.62V46.3081H571.444V58.7105ZM556.475 57.8552H570.589V47.1634H556.475V57.8552Z" fill="#007EFF"/>
<path d="M601.398 58.7105H585.574V46.3081H601.398V58.7105ZM586.429 57.8552H600.542V47.1634H586.429V57.8552Z" fill="#007EFF"/>
<path d="M601.398 70.2577H585.574V57.8552H601.398V70.2577ZM586.429 69.4023H600.542V58.7106H586.429V69.4023Z" fill="#007EFF"/>
<path d="M601.398 81.8048H585.574V69.4023H601.398V81.8048ZM586.429 80.9494H600.542V70.2577H586.429V80.9494Z" fill="#007EFF"/>
<path d="M601.398 93.3519H585.574V80.9495H601.398V93.3519ZM586.429 92.4966H600.542V81.8048H586.429V92.4966Z" fill="#007EFF"/>
<path d="M556.458 81.8048H540.634V69.4023H556.458V81.8048ZM541.49 80.9494H555.603V70.2577H541.49V80.9494Z" fill="#007EFF"/>
<path d="M556.458 70.2577H540.634V57.8552H556.458V70.2577ZM541.49 69.4023H555.603V58.7106H541.49V69.4023Z" fill="#007EFF"/>
<path d="M571.444 93.3519H555.62V80.9495H571.444V93.3519ZM556.475 92.4966H570.589V81.8048H556.475V92.4966Z" fill="#007EFF"/>
<path d="M556.458 93.3519H540.634V80.9495H556.458V93.3519ZM541.49 92.4966H555.603V81.8048H541.49V92.4966Z" fill="#007EFF"/>
<path d="M571.444 81.8048H555.62V69.4023H571.444V81.8048ZM556.475 80.9494H570.589V70.2577H556.475V80.9494Z" fill="#007EFF"/>
<path d="M586.412 93.3519H570.588V80.9495H586.412V93.3519ZM571.444 92.4966H585.557V81.8048H571.444V92.4966Z" fill="#007EFF"/>
<path d="M586.412 70.2577H570.588V57.8552H586.412V70.2577ZM571.444 69.4023H585.557V58.7106H571.444V69.4023Z" fill="#007EFF"/>
<path d="M571.444 70.2577H555.62V57.8552H571.444V70.2577ZM556.475 69.4023H570.589V58.7106H556.475V69.4023Z" fill="#007EFF"/>
<path d="M611.628 185.746H600.782V138.702H611.628V185.746ZM601.637 184.89H610.772V139.557H601.637V184.89Z" fill="#007EFF"/>
<path d="M631.591 185.746H620.746V138.702H631.591V185.746ZM621.601 184.89H630.736V139.557H621.601V184.89Z" fill="#007EFF"/>
<path d="M621.618 185.746H610.789V138.702H621.618V185.746ZM611.644 184.89H620.762V139.557H611.644V184.89Z" fill="#007EFF"/>
<path d="M651.555 185.746H640.709V138.702H651.555V185.746ZM641.564 184.89H650.699V139.557H641.564V184.89Z" fill="#007EFF"/>
<path d="M641.582 185.746H630.753V138.702H641.582V185.746ZM631.608 184.89H640.726V139.557H631.608V184.89Z" fill="#007EFF"/>
<path d="M661.545 185.746H650.7V138.702H661.545V185.746ZM651.555 184.89H660.69V139.557H651.555V184.89Z" fill="#007EFF"/>
<path d="M586.412 81.8048H570.588V69.4023H586.412V81.8048ZM571.444 80.9494H585.557V70.2577H571.444V80.9494Z" fill="#007EFF"/>
<path d="M541.439 185.746H520.637V138.702H541.439V185.746ZM521.492 184.89H540.583V139.557H521.492V184.89Z" fill="#007EFF"/>
<path d="M501.545 185.746H480.743V138.702H501.545V185.746ZM481.599 184.89H500.69V139.557H481.599V184.89Z" fill="#007EFF"/>
<path d="M521.492 185.746H500.69V138.702H521.492V185.746ZM501.545 184.89H520.636V139.557H501.545V184.89Z" fill="#007EFF"/>
<path d="M541.49 185.746H540.583V138.702H541.438L541.49 139.13V185.746Z" fill="#007EFF"/>
<path d="M721.436 93.3518H660.69V46.3081H721.436V93.3518ZM661.545 92.4965H720.581V47.1634H661.545V92.4965ZM704.962 78.0412H677.181V61.6187H704.962V78.0412ZM678.036 77.1859H704.107V62.474H678.036V77.1859Z" fill="#007EFF"/>
<path d="M721.436 116.463H690.627V92.5137H721.436V116.463ZM691.482 115.608H720.581V93.369H691.482V115.608Z" fill="#007EFF"/>
<path d="M691.482 139.557H660.69V115.608H691.482V139.557ZM661.545 138.702H690.627V116.463H661.545V138.702Z" fill="#007EFF"/>
<path d="M691.482 116.463H660.69V92.5137H691.482V116.463ZM661.545 115.608H690.627V93.369H661.545V115.608Z" fill="#007EFF"/>
<path d="M721.436 139.557H690.627V115.608H721.436V139.557ZM691.482 138.702H720.581V116.463H691.482V138.702Z" fill="#007EFF"/>
<path d="M721.436 47.1635H690.627V23.214H721.436V47.1635ZM691.482 46.3082H720.581V24.0693H691.482V46.3082Z" fill="#007EFF"/>
<path d="M691.482 24.0693H660.69V0.119751H691.482V24.0693ZM661.545 23.2139H690.627V0.975091H661.545V23.2139Z" fill="#007EFF"/>
<path d="M691.482 47.1635H660.69V23.214H691.482V47.1635ZM661.545 46.3082H690.627V24.0693H661.545V46.3082Z" fill="#007EFF"/>
<path d="M721.436 24.0693H690.627V0.119751H721.436V24.0693ZM691.482 23.2139H720.581V0.975091H691.482V23.2139Z" fill="#007EFF"/>
<path d="M601.381 139.557H540.634V123.374H601.381V139.557ZM541.49 138.702H600.525V124.23H541.49V138.702Z" fill="#007EFF"/>
<path d="M601.381 108.68H540.634V92.5137H601.381V108.68ZM541.49 107.824H600.525V93.369H541.49V107.824Z" fill="#007EFF"/>
<path d="M601.381 47.1635H540.634V0.119751H601.381V47.1635ZM541.49 46.3081H600.525V0.975091H541.49V46.3081Z" fill="#007EFF"/>
<path d="M601.381 31.8528H540.634V15.4474H601.381V31.8528ZM541.49 30.9975H600.525V16.3027H541.49V30.9975Z" fill="#007EFF"/>
<path d="M704.962 78.0413H677.181V61.6188H704.962V78.0413ZM678.036 77.186H704.107V62.4741H678.036V77.186Z" fill="#007EFF"/>
<path d="M541.028 46.7359V0.547485H481.137V46.7359H541.028ZM524.554 31.4253H497.628V15.8581H524.554V31.4253Z" stroke="#007EFF" stroke-width="1.03651" stroke-miterlimit="10"/>
<path d="M511.108 130.251C503.016 130.251 496.43 123.665 496.43 115.574C496.43 107.482 503.016 100.896 511.108 100.896C519.199 100.896 525.785 107.482 525.785 115.574C525.785 123.665 519.199 130.251 511.108 130.251ZM511.108 101.768C503.495 101.768 497.286 107.961 497.286 115.591C497.286 123.22 503.478 129.413 511.108 129.413C518.737 129.413 524.93 123.22 524.93 115.591C524.93 107.961 518.737 101.768 511.108 101.768Z" fill="#007EFF"/>
<path d="M571.016 185.865L570.76 185.66L540.378 161.369L571.033 138.599L601.672 162.241L571.016 185.883V185.865ZM541.781 161.386L571.033 184.771L600.269 162.224L571.016 139.66L541.781 161.386Z" fill="#007EFF"/>
<path d="M600.782 23.6416V0.119751H632.446L600.782 23.6416ZM601.637 0.975091V21.948L629.863 0.975091H601.637Z" fill="#007EFF"/>
<path d="M632.378 47.1635H600.782V21.9138L632.378 47.1635ZM601.637 46.3081H629.932L601.637 23.6929V46.3081Z" fill="#007EFF"/>
<path d="M661.546 47.1635H629.915L661.546 22.7692V47.1635ZM632.43 46.3081H660.69V24.5141L632.43 46.3081Z" fill="#007EFF"/>
<path d="M661.546 24.5141L629.915 0.119751H661.546V24.5141ZM632.43 0.975091L660.69 22.7692V0.975091H632.43Z" fill="#007EFF"/>
<path d="M541.489 93.3518H480.743V46.3081H541.489V93.3518ZM481.599 92.4965H540.634V47.1634H481.599V92.4965Z" fill="#007EFF"/>
<path d="M721.436 185.746H660.69V175.653H721.436V185.746ZM661.545 184.89H720.581V176.508H661.545V184.89Z" fill="#007EFF"/>
<path d="M721.436 176.508H660.69V166.415H721.436V176.508ZM661.545 175.653H720.581V167.27H661.545V175.653Z" fill="#007EFF"/>
<path d="M721.436 167.27H660.69V157.177H721.436V167.27ZM661.545 166.415H720.581V158.033H661.545V166.415Z" fill="#007EFF"/>
<path d="M721.436 158.033H660.69V147.94H721.436V158.033ZM661.545 157.177H720.581V148.795H661.545V157.177Z" fill="#007EFF"/>
<path d="M721.436 148.778H660.69V138.685H721.436V148.778ZM661.545 147.923H720.581V139.54H661.545V147.923Z" fill="#007EFF"/>
<path d="M781.31 93.3518H720.564V46.3081H781.31V93.3518ZM721.419 92.4965H780.455V47.1634H721.419V92.4965Z" fill="#007EFF"/>
<path d="M841.235 47.1635H780.489V0.119751H841.235V47.1635ZM781.344 46.3081H840.38V0.975091H781.344V46.3081Z" fill="#007EFF"/>
<path d="M901.383 93.3518H870.574V46.3081H901.383V93.3518ZM871.429 92.4965H900.528V47.1634H871.429V92.4965Z" fill="#007EFF"/>
<path d="M871.446 93.3518H840.637V46.3081H871.446V93.3518ZM841.492 92.4965H870.591V47.1634H841.492V92.4965Z" fill="#007EFF"/>
<path d="M901.383 139.985L839.798 92.4966H901.383V139.985ZM842.313 93.3519L900.528 138.24V93.3519H842.313Z" fill="#007EFF"/>
<path d="M902.221 139.557H840.637V92.0688L902.221 139.557ZM841.492 138.702H899.706L841.492 93.8137V138.702Z" fill="#007EFF"/>
<path d="M781.327 139.557H774.296L774.177 139.472L750.604 121.304L726.928 139.574H720.564V133.963L743.778 116.053L720.564 98.1418V92.5308H726.928L727.047 92.6163L750.604 110.784L774.279 92.5308H781.31V97.6286L757.429 116.053L781.31 134.477V139.574L781.327 139.557ZM774.587 138.702H780.472V134.87L756.043 116.018L780.472 97.1667V93.3348H774.587L750.621 111.827L726.654 93.3348H721.436V97.6799L745.198 116.018L721.436 134.357V138.702H726.654L750.621 120.21L774.587 138.702Z" fill="#007EFF"/>
<path d="M796.313 139.557H780.489V127.155H796.313V139.557ZM781.344 138.702H795.457V128.01H781.344V138.702Z" fill="#007EFF"/>
<path d="M826.267 139.557H810.443V127.155H826.267V139.557ZM811.299 138.702H825.412V128.01H811.299V138.702Z" fill="#007EFF"/>
<path d="M811.281 139.557H795.458V127.155H811.281V139.557ZM796.313 138.702H810.426V128.01H796.313V138.702Z" fill="#007EFF"/>
<path d="M841.235 139.557H825.412V127.155H841.235V139.557ZM826.267 138.702H840.38V128.01H826.267V138.702Z" fill="#007EFF"/>
<path d="M841.235 127.993H825.412V115.591H841.235V127.993ZM826.267 127.138H840.38V116.446H826.267V127.138Z" fill="#007EFF"/>
<path d="M841.235 116.446H825.412V104.044H841.235V116.446ZM826.267 115.591H840.38V104.899H826.267V115.591Z" fill="#007EFF"/>
<path d="M841.235 104.899H825.412V92.4966H841.235V104.899ZM826.267 104.044H840.38V93.3519H826.267V104.044Z" fill="#007EFF"/>
<path d="M796.313 116.446H780.489V104.044H796.313V116.446ZM781.344 115.591H795.457V104.899H781.344V115.591Z" fill="#007EFF"/>
<path d="M796.313 127.993H780.489V115.591H796.313V127.993ZM781.344 127.138H795.457V116.446H781.344V127.138Z" fill="#007EFF"/>
<path d="M811.281 104.899H795.458V92.4966H811.281V104.899ZM796.313 104.044H810.426V93.3519H796.313V104.044Z" fill="#007EFF"/>
<path d="M796.313 104.899H780.489V92.4966H796.313V104.899ZM781.344 104.044H795.457V93.3519H781.344V104.044Z" fill="#007EFF"/>
<path d="M811.281 116.446H795.458V104.044H811.281V116.446ZM796.313 115.591H810.426V104.899H796.313V115.591Z" fill="#007EFF"/>
<path d="M826.267 104.899H810.443V92.4966H826.267V104.899ZM811.299 104.044H825.412V93.3519H811.299V104.044Z" fill="#007EFF"/>
<path d="M826.267 127.993H810.443V115.591H826.267V127.993ZM811.299 127.138H825.412V116.446H811.299V127.138Z" fill="#007EFF"/>
<path d="M811.281 127.993H795.458V115.591H811.281V127.993ZM796.313 127.138H810.426V116.446H796.313V127.138Z" fill="#007EFF"/>
<path d="M851.482 47.1635H840.637V0.119751H851.482V47.1635ZM841.492 46.3081H850.627V0.975091H841.492V46.3081Z" fill="#007EFF"/>
<path d="M871.446 47.1635H860.6V0.119751H871.446V47.1635ZM861.455 46.3081H870.59V0.975091H861.455V46.3081Z" fill="#007EFF"/>
<path d="M861.456 47.1635H850.627V0.119751H861.456V47.1635ZM851.482 46.3081H860.6V0.975091H851.482V46.3081Z" fill="#007EFF"/>
<path d="M891.409 47.1635H880.563V0.119751H891.409V47.1635ZM881.419 46.3081H890.554V0.975091H881.419V46.3081Z" fill="#007EFF"/>
<path d="M881.419 47.1635H870.59V0.119751H881.419V47.1635ZM871.446 46.3081H880.564V0.975091H871.446V46.3081Z" fill="#007EFF"/>
<path d="M901.383 47.1635H890.537V0.119751H901.383V47.1635ZM891.392 46.3081H900.528V0.975091H891.392V46.3081Z" fill="#007EFF"/>
<path d="M826.267 116.446H810.443V104.044H826.267V116.446ZM811.299 115.591H825.412V104.899H811.299V115.591Z" fill="#007EFF"/>
<path d="M781.276 47.1635H760.474V0.119751H781.276V47.1635ZM761.329 46.3081H780.421V0.975091H761.329V46.3081Z" fill="#007EFF"/>
<path d="M741.383 47.1635H720.581V0.119751H741.383V47.1635ZM721.436 46.3081H740.528V0.975091H721.436V46.3081Z" fill="#007EFF"/>
<path d="M761.329 47.1635H740.527V0.119751H761.329V47.1635ZM741.383 46.3081H760.474V0.975091H741.383V46.3081Z" fill="#007EFF"/>
<path d="M781.327 47.1635H780.472L780.42 46.7358V0.119751H781.276L781.327 0.547421V47.1635Z" fill="#007EFF"/>
<path d="M961.291 139.557H900.545V92.5137H961.291V139.557ZM901.4 138.702H960.436V93.369H901.4V138.702ZM944.817 124.23H917.036V107.807H944.817V124.23ZM917.891 123.374H943.962V108.662H917.891V123.374Z" fill="#007EFF"/>
<path d="M961.291 93.3519H930.481V69.4023H961.291V93.3519ZM931.337 92.4965H960.435V70.2577H931.337V92.4965Z" fill="#007EFF"/>
<path d="M931.337 70.2576H900.545V46.3081H931.337V70.2576ZM901.4 69.4023H930.482V47.1634H901.4V69.4023Z" fill="#007EFF"/>
<path d="M931.337 93.3519H900.545V69.4023H931.337V93.3519ZM901.4 92.4965H930.482V70.2577H901.4V92.4965Z" fill="#007EFF"/>
<path d="M961.291 70.2576H930.481V46.3081H961.291V70.2576ZM931.337 69.4023H960.435V47.1634H931.337V69.4023Z" fill="#007EFF"/>
<path d="M961.291 162.652H930.481V138.702H961.291V162.652ZM931.337 161.796H960.435V139.557H931.337V161.796Z" fill="#007EFF"/>
<path d="M931.337 185.746H900.545V161.796H931.337V185.746ZM901.4 184.89H930.482V162.651H901.4V184.89Z" fill="#007EFF"/>
<path d="M931.337 162.652H900.545V138.702H931.337V162.652ZM901.4 161.796H930.482V139.557H901.4V161.796Z" fill="#007EFF"/>
<path d="M961.291 185.746H930.481V161.796H961.291V185.746ZM931.337 184.89H960.435V162.651H931.337V184.89Z" fill="#007EFF"/>
<path d="M841.235 62.4741H780.472V46.291H841.235V62.4741ZM781.327 61.6187H840.38V47.1464H781.327V61.6187Z" fill="#007EFF"/>
<path d="M841.235 93.3518H780.472V77.1859H841.235V93.3518ZM781.327 92.4965H840.38V78.0413H781.327V92.4965Z" fill="#007EFF"/>
<path d="M841.235 185.746H780.489V138.702H841.235V185.746ZM781.344 184.89H840.38V139.557H781.344V184.89Z" fill="#007EFF"/>
<path d="M841.235 170.418H780.489V154.013H841.235V170.418ZM781.344 169.563H840.38V154.868H781.344V169.563Z" fill="#007EFF"/>
<path d="M944.8 124.23H917.018V107.807H944.8V124.23ZM917.873 123.374H943.944V108.662H917.873V123.374Z" fill="#007EFF"/>
<path d="M720.991 139.13V185.318H780.882V139.13H720.991ZM764.408 170.007H737.482V154.44H764.408V170.007Z" stroke="#007EFF" stroke-width="1.03651" stroke-miterlimit="10"/>
<path d="M750.963 84.9525C742.871 84.9525 736.285 78.3663 736.285 70.2748C736.285 62.1833 742.871 55.5972 750.963 55.5972C759.054 55.5972 765.64 62.1833 765.64 70.2748C765.64 78.3663 759.054 84.9525 750.963 84.9525ZM750.963 56.4696C743.35 56.4696 737.14 62.6623 737.14 70.2919C737.14 77.9216 743.333 84.1142 750.963 84.1142C758.592 84.1142 764.785 77.9216 764.785 70.2919C764.785 62.6623 758.592 56.4696 750.963 56.4696Z" fill="#007EFF"/>
<path d="M810.854 47.2661L780.198 24.497L810.837 0L811.11 0.205282L841.492 23.6416L810.854 47.2661ZM781.601 24.4627L810.837 46.1884L840.089 23.6245L810.854 1.07773L781.601 24.4627Z" fill="#007EFF"/>
<path d="M872.301 185.746H840.637V162.224L872.301 185.746ZM841.492 184.89H869.718L841.492 163.917V184.89Z" fill="#007EFF"/>
<path d="M840.637 163.952V138.702H872.233L840.637 163.952ZM841.492 139.557V162.19L869.787 139.557H841.492Z" fill="#007EFF"/>
<path d="M901.383 163.096L869.752 138.702H901.383V163.096ZM872.267 139.557L900.528 161.351V139.557H872.267Z" fill="#007EFF"/>
<path d="M901.383 185.746H869.752L901.383 161.351V185.746ZM872.267 184.89H900.528V163.096L872.267 184.89Z" fill="#007EFF"/>
<path d="M781.327 139.54H720.581V92.4966H781.327V139.54ZM721.436 138.685H780.472V93.3519H721.436V138.685Z" fill="#007EFF"/>
<path d="M961.274 10.2128H900.527V0.119751H961.274V10.2128ZM901.383 9.35743H960.418V0.975092H901.383V9.35743Z" fill="#007EFF"/>
<path d="M961.274 19.4504H900.527V9.35742H961.274V19.4504ZM901.383 18.5951H960.418V10.2128H901.383V18.5951Z" fill="#007EFF"/>
<path d="M961.274 28.6881H900.527V18.5951H961.274V28.6881ZM901.383 27.8328H960.418V19.4504H901.383V27.8328Z" fill="#007EFF"/>
<path d="M961.274 37.9258H900.527V27.8328H961.274V37.9258ZM901.383 37.0704H960.418V28.6881H901.383V37.0704Z" fill="#007EFF"/>
<path d="M961.274 47.1635H900.527V37.0704H961.274V47.1635ZM901.383 46.3081H960.418V37.9258H901.383V46.3081Z" fill="#007EFF"/>
<path d="M1021.18 93.3518H960.436V46.3081H1021.18V93.3518ZM961.291 92.4965H1020.33V47.1634H961.291V92.4965Z" fill="#007EFF"/>
<path d="M1081.11 47.1635H1020.36V0.119751H1081.11V47.1635ZM1021.22 46.3081H1080.25V0.975091H1021.22V46.3081Z" fill="#007EFF"/>
<path d="M1141.25 93.3518H1110.45V46.3081H1141.25V93.3518ZM1111.3 92.4965H1140.4V47.1634H1111.3V92.4965Z" fill="#007EFF"/>
<path d="M1111.32 93.3518H1080.51V46.3081H1111.32V93.3518ZM1081.36 92.4965H1110.46V47.1634H1081.36V92.4965Z" fill="#007EFF"/>
<path d="M1141.25 139.985L1079.67 92.4966H1141.25V139.985ZM1082.18 93.3519L1140.4 138.24V93.3519H1082.18Z" fill="#007EFF"/>
<path d="M1142.09 139.557H1080.51V92.0688L1142.09 139.557ZM1081.36 138.702H1139.58L1081.36 93.8137V138.702Z" fill="#007EFF"/>
<path d="M1021.22 139.557H1014.19L1014.07 139.472L990.492 121.304L966.816 139.574H960.453V133.963L983.667 116.053L960.453 98.1418V92.5308H966.816L966.936 92.6163L990.492 110.784L1014.17 92.5308H1021.2V97.6286L997.318 116.053L1021.2 134.477V139.574L1021.22 139.557ZM1014.48 138.702H1020.36V134.87L995.932 116.018L1020.36 97.1667V93.3348H1014.48L990.509 111.827L966.543 93.3348H961.325V97.6799L985.086 116.018L961.325 134.357V138.702H966.543L990.509 120.21L1014.48 138.702Z" fill="#007EFF"/>
<path d="M1036.18 139.557H1020.36V127.155H1036.18V139.557ZM1021.22 138.702H1035.33V128.01H1021.22V138.702Z" fill="#007EFF"/>
<path d="M1066.14 139.557H1050.31V127.155H1066.14V139.557ZM1051.17 138.702H1065.28V128.01H1051.17V138.702Z" fill="#007EFF"/>
<path d="M1051.15 139.557H1035.33V127.155H1051.15V139.557ZM1036.18 138.702H1050.3V128.01H1036.18V138.702Z" fill="#007EFF"/>
<path d="M1081.11 139.557H1065.28V127.155H1081.11V139.557ZM1066.14 138.702H1080.25V128.01H1066.14V138.702Z" fill="#007EFF"/>
<path d="M1081.11 127.993H1065.28V115.591H1081.11V127.993ZM1066.14 127.138H1080.25V116.446H1066.14V127.138Z" fill="#007EFF"/>
<path d="M1081.11 116.446H1065.28V104.044H1081.11V116.446ZM1066.14 115.591H1080.25V104.899H1066.14V115.591Z" fill="#007EFF"/>
<path d="M1081.11 104.899H1065.28V92.4966H1081.11V104.899ZM1066.14 104.044H1080.25V93.3519H1066.14V104.044Z" fill="#007EFF"/>
<path d="M1036.18 116.446H1020.36V104.044H1036.18V116.446ZM1021.22 115.591H1035.33V104.899H1021.22V115.591Z" fill="#007EFF"/>
<path d="M1036.18 127.993H1020.36V115.591H1036.18V127.993ZM1021.22 127.138H1035.33V116.446H1021.22V127.138Z" fill="#007EFF"/>
<path d="M1051.15 104.899H1035.33V92.4966H1051.15V104.899ZM1036.18 104.044H1050.3V93.3519H1036.18V104.044Z" fill="#007EFF"/>
<path d="M1036.18 104.899H1020.36V92.4966H1036.18V104.899ZM1021.22 104.044H1035.33V93.3519H1021.22V104.044Z" fill="#007EFF"/>
<path d="M1051.15 116.446H1035.33V104.044H1051.15V116.446ZM1036.18 115.591H1050.3V104.899H1036.18V115.591Z" fill="#007EFF"/>
<path d="M1066.14 104.899H1050.31V92.4966H1066.14V104.899ZM1051.17 104.044H1065.28V93.3519H1051.17V104.044Z" fill="#007EFF"/>
<path d="M1066.14 127.993H1050.31V115.591H1066.14V127.993ZM1051.17 127.138H1065.28V116.446H1051.17V127.138Z" fill="#007EFF"/>
<path d="M1051.15 127.993H1035.33V115.591H1051.15V127.993ZM1036.18 127.138H1050.3V116.446H1036.18V127.138Z" fill="#007EFF"/>
<path d="M1091.35 47.1635H1080.51V0.119751H1091.35V47.1635ZM1081.36 46.3081H1090.5V0.975091H1081.36V46.3081Z" fill="#007EFF"/>
<path d="M1111.32 47.1635H1100.47V0.119751H1111.32V47.1635ZM1101.33 46.3081H1110.46V0.975091H1101.33V46.3081Z" fill="#007EFF"/>
<path d="M1101.33 47.1635H1090.5V0.119751H1101.33V47.1635ZM1091.35 46.3081H1100.47V0.975091H1091.35V46.3081Z" fill="#007EFF"/>
<path d="M1131.28 47.1635H1120.44V0.119751H1131.28V47.1635ZM1121.29 46.3081H1130.43V0.975091H1121.29V46.3081Z" fill="#007EFF"/>
<path d="M1121.29 47.1635H1110.46V0.119751H1121.29V47.1635ZM1111.32 46.3081H1120.44V0.975091H1111.32V46.3081Z" fill="#007EFF"/>
<path d="M1141.25 47.1635H1130.41V0.119751H1141.25V47.1635ZM1131.26 46.3081H1140.4V0.975091H1131.26V46.3081Z" fill="#007EFF"/>
<path d="M1066.14 116.446H1050.31V104.044H1066.14V116.446ZM1051.17 115.591H1065.28V104.899H1051.17V115.591Z" fill="#007EFF"/>
<path d="M1021.15 47.1635H1000.35V0.119751H1021.15V47.1635ZM1001.2 46.3081H1020.29V0.975091H1001.2V46.3081Z" fill="#007EFF"/>
<path d="M981.255 47.1635H960.453V0.119751H981.255V47.1635ZM961.308 46.3081H980.399V0.975091H961.308V46.3081Z" fill="#007EFF"/>
<path d="M1001.2 47.1635H980.399V0.119751H1001.2V47.1635ZM981.254 46.3081H1000.35V0.975091H981.254V46.3081Z" fill="#007EFF"/>
<path d="M1021.2 47.1635H1020.34L1020.29 46.7358V0.119751H1021.15L1021.2 0.547421V47.1635Z" fill="#007EFF"/>
<path d="M1201.16 139.557H1140.42V92.5137H1201.16V139.557ZM1141.27 138.702H1200.31V93.369H1141.27V138.702ZM1184.69 124.23H1156.91V107.807H1184.69V124.23ZM1157.76 123.374H1183.83V108.662H1157.76V123.374Z" fill="#007EFF"/>
<path d="M1201.16 93.3519H1170.35V69.4023H1201.16V93.3519ZM1171.21 92.4965H1200.31V70.2577H1171.21V92.4965Z" fill="#007EFF"/>
<path d="M1171.21 70.2576H1140.42V46.3081H1171.21V70.2576ZM1141.27 69.4023H1170.35V47.1634H1141.27V69.4023Z" fill="#007EFF"/>
<path d="M1171.21 93.3519H1140.42V69.4023H1171.21V93.3519ZM1141.27 92.4965H1170.35V70.2577H1141.27V92.4965Z" fill="#007EFF"/>
<path d="M1201.16 70.2576H1170.35V46.3081H1201.16V70.2576ZM1171.21 69.4023H1200.31V47.1634H1171.21V69.4023Z" fill="#007EFF"/>
<path d="M1201.16 162.652H1170.35V138.702H1201.16V162.652ZM1171.21 161.796H1200.31V139.557H1171.21V161.796Z" fill="#007EFF"/>
<path d="M1171.21 185.746H1140.42V161.796H1171.21V185.746ZM1141.27 184.89H1170.35V162.651H1141.27V184.89Z" fill="#007EFF"/>
<path d="M1171.21 162.652H1140.42V138.702H1171.21V162.652ZM1141.27 161.796H1170.35V139.557H1141.27V161.796Z" fill="#007EFF"/>
<path d="M1201.16 185.746H1170.35V161.796H1201.16V185.746ZM1171.21 184.89H1200.31V162.651H1171.21V184.89Z" fill="#007EFF"/>
<path d="M1081.11 62.4741H1020.34V46.291H1081.11V62.4741ZM1021.2 61.6187H1080.25V47.1464H1021.2V61.6187Z" fill="#007EFF"/>
<path d="M1081.11 93.3518H1020.34V77.1859H1081.11V93.3518ZM1021.2 92.4965H1080.25V78.0413H1021.2V92.4965Z" fill="#007EFF"/>
<path d="M1081.11 185.746H1020.36V138.702H1081.11V185.746ZM1021.22 184.89H1080.25V139.557H1021.22V184.89Z" fill="#007EFF"/>
<path d="M1081.11 170.418H1020.36V154.013H1081.11V170.418ZM1021.22 169.563H1080.25V154.868H1021.22V169.563Z" fill="#007EFF"/>
<path d="M1184.67 124.23H1156.89V107.807H1184.67V124.23ZM1157.74 123.374H1183.82V108.662H1157.74V123.374Z" fill="#007EFF"/>
<path d="M960.863 139.13V185.318H1020.75V139.13H960.863ZM1004.28 170.007H977.354V154.44H1004.28V170.007Z" stroke="#007EFF" stroke-width="1.03651" stroke-miterlimit="10"/>
<path d="M990.834 84.9525C982.743 84.9525 976.157 78.3663 976.157 70.2748C976.157 62.1833 982.743 55.5972 990.834 55.5972C998.926 55.5972 1005.51 62.1833 1005.51 70.2748C1005.51 78.3663 998.926 84.9525 990.834 84.9525ZM990.834 56.4696C983.222 56.4696 977.012 62.6623 977.012 70.2919C977.012 77.9216 983.205 84.1142 990.834 84.1142C998.464 84.1142 1004.66 77.9216 1004.66 70.2919C1004.66 62.6623 998.464 56.4696 990.834 56.4696Z" fill="#007EFF"/>
<path d="M1050.73 47.2661L1020.07 24.497L1050.71 0L1050.98 0.205282L1081.36 23.6416L1050.73 47.2661ZM1021.47 24.4627L1050.71 46.1884L1079.96 23.6245L1050.73 1.07773L1021.47 24.4627Z" fill="#007EFF"/>
<path d="M1112.17 185.746H1080.51V162.224L1112.17 185.746ZM1081.36 184.89H1109.59L1081.36 163.917V184.89Z" fill="#007EFF"/>
<path d="M1080.51 163.952V138.702H1112.1L1080.51 163.952ZM1081.36 139.557V162.19L1109.66 139.557H1081.36Z" fill="#007EFF"/>
<path d="M1141.25 163.096L1109.62 138.702H1141.25V163.096ZM1112.14 139.557L1140.4 161.351V139.557H1112.14Z" fill="#007EFF"/>
<path d="M1141.25 185.746H1109.62L1141.25 161.351V185.746ZM1112.14 184.89H1140.4V163.096L1112.14 184.89Z" fill="#007EFF"/>
<path d="M1021.2 139.54H960.453V92.4966H1021.2V139.54ZM961.308 138.685H1020.34V93.3519H961.308V138.685Z" fill="#007EFF"/>
<path d="M1201.16 10.2128H1140.42V0.119751H1201.16V10.2128ZM1141.27 9.35743H1200.31V0.975092H1141.27V9.35743Z" fill="#007EFF"/>
<path d="M1201.16 19.4504H1140.42V9.35742H1201.16V19.4504ZM1141.27 18.5951H1200.31V10.2128H1141.27V18.5951Z" fill="#007EFF"/>
<path d="M1201.16 28.6881H1140.42V18.5951H1201.16V28.6881ZM1141.27 27.8328H1200.31V19.4504H1141.27V27.8328Z" fill="#007EFF"/>
<path d="M1201.16 37.9258H1140.42V27.8328H1201.16V37.9258ZM1141.27 37.0704H1200.31V28.6881H1141.27V37.0704Z" fill="#007EFF"/>
<path d="M1201.16 47.1635H1140.42V37.0704H1201.16V47.1635ZM1141.27 46.3081H1200.31V37.9258H1141.27V46.3081Z" fill="#007EFF"/>
<path d="M1261.02 139.557H1200.27V92.5137H1261.02V139.557ZM1201.13 138.702H1260.16V93.369H1201.13V138.702Z" fill="#007EFF"/>
<path d="M1320.94 185.746H1260.2V138.702H1320.94V185.746ZM1261.05 184.89H1320.09V139.557H1261.05V184.89Z" fill="#007EFF"/>
<path d="M1381.11 139.54H1350.3V92.4966H1381.11V139.54ZM1351.16 138.685H1380.25V93.3519H1351.16V138.685Z" fill="#007EFF"/>
<path d="M1351.16 139.54H1320.35V92.4966H1351.16V139.54ZM1321.2 138.685H1350.3V93.3519H1321.2V138.685Z" fill="#007EFF"/>
<path d="M1381.11 93.3519H1319.52L1381.11 45.8634V93.3519ZM1322.04 92.4966H1380.25V47.6083L1322.04 92.4966Z" fill="#007EFF"/>
<path d="M1320.35 93.7966V46.3081H1381.93L1320.35 93.7966ZM1321.2 47.1634V92.0517L1379.42 47.1634H1321.2Z" fill="#007EFF"/>
<path d="M1261.05 93.3518H1254.02L1253.9 93.2663L1230.35 75.0989L1206.67 93.3518H1200.31V87.7408L1223.52 69.83L1200.31 51.9191V46.3081H1206.67L1206.79 46.3936L1230.36 64.5782L1254.04 46.3081H1261.07V51.4059L1237.19 69.83L1261.07 88.254V93.3518H1261.05ZM1254.31 92.4965H1260.2V88.6817L1235.77 69.83L1260.2 50.9783V47.1463H1254.31L1230.35 65.6388L1206.38 47.1463H1201.16V51.4915L1224.92 69.8129L1201.16 88.1514V92.4965H1206.38L1230.35 74.004L1254.31 92.4965Z" fill="#007EFF"/>
<path d="M1276.02 58.7105H1260.2V46.3081H1276.02V58.7105ZM1261.05 57.8552H1275.17V47.1634H1261.05V57.8552Z" fill="#007EFF"/>
<path d="M1305.98 58.7105H1290.15V46.3081H1305.98V58.7105ZM1291.01 57.8552H1305.12V47.1634H1291.01V57.8552Z" fill="#007EFF"/>
<path d="M1291.01 58.7105H1275.18V46.3081H1291.01V58.7105ZM1276.04 57.8552H1290.15V47.1634H1276.04V57.8552Z" fill="#007EFF"/>
<path d="M1320.94 58.7105H1305.12V46.3081H1320.94V58.7105ZM1305.98 57.8552H1320.09V47.1634H1305.98V57.8552Z" fill="#007EFF"/>
<path d="M1320.94 70.2577H1305.12V57.8552H1320.94V70.2577ZM1305.98 69.4023H1320.09V58.7106H1305.98V69.4023Z" fill="#007EFF"/>
<path d="M1320.94 81.8048H1305.12V69.4023H1320.94V81.8048ZM1305.98 80.9494H1320.09V70.2577H1305.98V80.9494Z" fill="#007EFF"/>
<path d="M1320.94 93.3519H1305.12V80.9495H1320.94V93.3519ZM1305.98 92.4966H1320.09V81.8048H1305.98V92.4966Z" fill="#007EFF"/>
<path d="M1276.02 81.8048H1260.2V69.4023H1276.02V81.8048ZM1261.05 80.9494H1275.17V70.2577H1261.05V80.9494Z" fill="#007EFF"/>
<path d="M1276.02 70.2577H1260.2V57.8552H1276.02V70.2577ZM1261.05 69.4023H1275.17V58.7106H1261.05V69.4023Z" fill="#007EFF"/>
<path d="M1291.01 93.3519H1275.18V80.9495H1291.01V93.3519ZM1276.04 92.4966H1290.15V81.8048H1276.04V92.4966Z" fill="#007EFF"/>
<path d="M1276.02 93.3519H1260.2V80.9495H1276.02V93.3519ZM1261.05 92.4966H1275.17V81.8048H1261.05V92.4966Z" fill="#007EFF"/>
<path d="M1291.01 81.8048H1275.18V69.4023H1291.01V81.8048ZM1276.04 80.9494H1290.15V70.2577H1276.04V80.9494Z" fill="#007EFF"/>
<path d="M1305.98 93.3519H1290.15V80.9495H1305.98V93.3519ZM1291.01 92.4966H1305.12V81.8048H1291.01V92.4966Z" fill="#007EFF"/>
<path d="M1305.98 70.2577H1290.15V57.8552H1305.98V70.2577ZM1291.01 69.4023H1305.12V58.7106H1291.01V69.4023Z" fill="#007EFF"/>
<path d="M1291.01 70.2577H1275.18V57.8552H1291.01V70.2577ZM1276.04 69.4023H1290.15V58.7106H1276.04V69.4023Z" fill="#007EFF"/>
<path d="M1331.19 185.746H1320.35V138.702H1331.19V185.746ZM1321.2 184.89H1330.34V139.557H1321.2V184.89Z" fill="#007EFF"/>
<path d="M1351.15 185.746H1340.31V138.702H1351.15V185.746ZM1341.16 184.89H1350.3V139.557H1341.16V184.89Z" fill="#007EFF"/>
<path d="M1341.16 185.746H1330.34V138.702H1341.16V185.746ZM1331.19 184.89H1340.31V139.557H1331.19V184.89Z" fill="#007EFF"/>
<path d="M1371.12 185.746H1360.27V138.702H1371.12V185.746ZM1361.13 184.89H1370.26V139.557H1361.13V184.89Z" fill="#007EFF"/>
<path d="M1361.13 185.746H1350.3V138.702H1361.13V185.746ZM1351.16 184.89H1360.27V139.557H1351.16V184.89Z" fill="#007EFF"/>
<path d="M1381.11 185.746H1370.26V138.702H1381.11V185.746ZM1371.12 184.89H1380.25V139.557H1371.12V184.89Z" fill="#007EFF"/>
<path d="M1305.98 81.8048H1290.15V69.4023H1305.98V81.8048ZM1291.01 80.9494H1305.12V70.2577H1291.01V80.9494Z" fill="#007EFF"/>
<path d="M1260.98 185.746H1240.18V138.702H1260.98V185.746ZM1241.04 184.89H1260.13V139.557H1241.04V184.89Z" fill="#007EFF"/>
<path d="M1221.09 185.746H1200.29V138.702H1221.09V185.746ZM1201.15 184.89H1220.24V139.557H1201.15V184.89Z" fill="#007EFF"/>
<path d="M1241.06 185.746H1220.25V138.702H1241.06V185.746ZM1221.11 184.89H1240.2V139.557H1221.11V184.89Z" fill="#007EFF"/>
<path d="M1261.05 185.746H1260.13V138.702H1260.99L1261.05 139.13V185.746Z" fill="#007EFF"/>
<path d="M1441 93.3518H1380.25V46.3081H1441V93.3518ZM1381.11 92.4965H1440.14V47.1634H1381.11V92.4965ZM1424.53 78.0412H1396.74V61.6358H1424.53V78.0412ZM1397.6 77.1859H1423.67V62.4911H1397.6V77.1859Z" fill="#007EFF"/>
<path d="M1441 116.446H1410.19V92.4966H1441V116.446ZM1411.05 115.591H1440.14V93.3519H1411.05V115.591Z" fill="#007EFF"/>
<path d="M1411.05 139.54H1380.25V115.591H1411.05V139.54ZM1381.11 138.685H1410.19V116.446H1381.11V138.685Z" fill="#007EFF"/>
<path d="M1411.05 116.446H1380.25V92.4966H1411.05V116.446ZM1381.11 115.591H1410.19V93.3519H1381.11V115.591Z" fill="#007EFF"/>
<path d="M1441 139.54H1410.19V115.591H1441V139.54ZM1411.05 138.685H1440.14V116.446H1411.05V138.685Z" fill="#007EFF"/>
<path d="M1441 47.1635H1410.19V23.214H1441V47.1635ZM1411.05 46.3082H1440.14V24.0693H1411.05V46.3082Z" fill="#007EFF"/>
<path d="M1411.05 24.0693H1380.25V0.119751H1411.05V24.0693ZM1381.11 23.2139H1410.19V0.975091H1381.11V23.2139Z" fill="#007EFF"/>
<path d="M1411.05 47.1635H1380.25V23.214H1411.05V47.1635ZM1381.11 46.3082H1410.19V24.0693H1381.11V46.3082Z" fill="#007EFF"/>
<path d="M1441 24.0693H1410.19V0.119751H1441V24.0693ZM1411.05 23.2139H1440.14V0.975091H1411.05V23.2139Z" fill="#007EFF"/>
<path d="M1320.94 139.557H1260.2V123.374H1320.94V139.557ZM1261.05 138.702H1320.09V124.23H1261.05V138.702Z" fill="#007EFF"/>
<path d="M1320.94 108.663H1260.2V92.4966H1320.94V108.663ZM1261.05 107.807H1320.09V93.3519H1261.05V107.807Z" fill="#007EFF"/>
<path d="M1320.94 47.1635H1260.2V0.119751H1320.94V47.1635ZM1261.05 46.3081H1320.09V0.975091H1261.05V46.3081Z" fill="#007EFF"/>
<path d="M1320.94 31.8357H1260.2V15.4303H1320.94V31.8357ZM1261.05 30.9804H1320.09V16.2856H1261.05V30.9804Z" fill="#007EFF"/>
<path d="M1424.53 78.0413H1396.74V61.6359H1424.53V78.0413ZM1397.6 77.186H1423.67V62.4912H1397.6V77.186Z" fill="#007EFF"/>
<path d="M1260.59 46.7359V0.547485H1200.7V46.7359H1260.59ZM1244.12 31.4253H1217.19V15.8581H1244.12V31.4253Z" stroke="#007EFF" stroke-width="1.03651" stroke-miterlimit="10"/>
<path d="M1230.67 130.234C1222.58 130.234 1215.99 123.648 1215.99 115.557C1215.99 107.465 1222.58 100.879 1230.67 100.879C1238.76 100.879 1245.35 107.465 1245.35 115.557C1245.35 123.648 1238.76 130.234 1230.67 130.234ZM1230.67 101.751C1223.06 101.751 1216.85 107.944 1216.85 115.574C1216.85 123.203 1223.04 129.396 1230.67 129.396C1238.3 129.396 1244.49 123.203 1244.49 115.574C1244.49 107.944 1238.3 101.751 1230.67 101.751Z" fill="#007EFF"/>
<path d="M1290.56 185.848L1290.31 185.643L1259.92 161.351L1290.58 138.582L1321.22 162.207L1290.56 185.848ZM1261.33 161.369L1290.58 184.754L1319.82 162.207L1290.56 139.643L1261.33 161.369Z" fill="#007EFF"/>
<path d="M1320.35 23.6416V0.119751H1352.01L1320.35 23.6416ZM1321.2 0.975091V21.948L1349.43 0.975091H1321.2Z" fill="#007EFF"/>
<path d="M1351.94 47.1635H1320.35V21.9138L1351.94 47.1635ZM1321.2 46.3081H1349.5L1321.2 23.6929V46.3081Z" fill="#007EFF"/>
<path d="M1381.11 47.1635H1349.48L1381.11 22.7692V47.1635ZM1351.99 46.3081H1380.25V24.5141L1351.99 46.3081Z" fill="#007EFF"/>
<path d="M1381.11 24.5141L1349.48 0.119751H1381.11V24.5141ZM1351.99 0.975091L1380.25 22.7692V0.975091H1351.99Z" fill="#007EFF"/>
<path d="M1261.05 93.3518H1200.31V46.3081H1261.05V93.3518ZM1201.16 92.4965H1260.2V47.1634H1201.16V92.4965Z" fill="#007EFF"/>
<path d="M1441 185.746H1380.25V175.653H1441V185.746ZM1381.11 184.89H1440.14V176.508H1381.11V184.89Z" fill="#007EFF"/>
<path d="M1441 176.508H1380.25V166.415H1441V176.508ZM1381.11 175.653H1440.14V167.27H1381.11V175.653Z" fill="#007EFF"/>
<path d="M1441 167.27H1380.25V157.177H1441V167.27ZM1381.11 166.415H1440.14V158.033H1381.11V166.415Z" fill="#007EFF"/>
<path d="M1441 158.033H1380.25V147.94H1441V158.033ZM1381.11 157.177H1440.14V148.795H1381.11V157.177Z" fill="#007EFF"/>
<path d="M1441 148.778H1380.25V138.685H1441V148.778ZM1381.11 147.923H1440.14V139.54H1381.11V147.923Z" fill="#007EFF"/>
</svg>
