<svg width="95" height="86" viewBox="0 0 95 86" fill="none" xmlns="http://www.w3.org/2000/svg">
<path d="M94.5104 62.1662C93.7176 60.7097 82.9033 42.2003 82.9033 42.2003C82.5167 41.5365 82.3813 40.7567 82.536 40.0027C82.536 40.0027 85.4232 24.387 86.0999 21.9186C87.0409 18.4836 85.1783 17.8713 83.522 17.8713H50.3573L47.702 4.6789C47.4185 3.2675 46.1811 2.25567 44.7439 2.25567H6.10751L6.04306 1.93343C5.81105 0.805596 4.825 0 3.67139 0H1.20304C0.442562 0.00644477 -0.124578 0.702479 0.0236518 1.45007L9.10433 46.5505L16.8574 85.0065H22.7737L15.0206 46.5505L14.3181 43.0639C15.4653 46.4603 18.6619 48.8062 22.3225 48.8062H52.0909C53.3734 48.8062 54.2177 50.1338 53.6763 51.3003C52.4003 54.0716 50.4604 57.6549 50.8342 60.2908C51.2466 63.1651 52.8127 64.4219 54.5721 64.4219H93.8788C94.6393 64.4219 95.2966 63.6292 94.5039 62.1727L94.5104 62.1662ZM34.8254 43.934C28.2195 43.934 25.6803 39.7255 24.6362 35.0273L24.1657 32.9134H29.6696L30.1594 35.1175C30.7458 37.7728 31.8737 39.2551 33.9618 39.2551C36.0499 39.2551 36.211 37.225 35.6954 34.9048C34.8447 31.0702 33.7556 29.8779 29.2571 26.8618C24.7458 23.8327 22.2581 21.8929 21.0916 16.6082C20.0475 11.9035 20.4213 7.16013 26.8597 7.16658C33.4462 7.16658 35.5085 11.8648 36.3657 15.7317L36.7846 17.6393L36.8297 17.8778H31.3774L31.255 17.2913L31.2421 17.2269L30.9456 15.8799C30.3914 13.3987 29.6374 11.8906 27.807 11.8906C25.9767 11.8906 25.8994 13.4438 26.4214 15.809C26.9821 18.3354 27.7297 19.5663 31.3839 21.8606C37.6031 25.8113 39.7427 28.0992 41.0704 34.0735C42.1982 39.1326 41.4893 43.934 34.8318 43.934H34.8254ZM73.5455 59.5625C66.9397 59.5625 64.4004 55.3541 63.3564 50.6559L62.9439 48.8127H68.4477L68.8731 50.7461C69.4596 53.4013 70.5874 54.8836 72.6755 54.8836C74.7636 54.8836 74.9247 52.8535 74.4091 50.5334C73.5584 46.6988 72.4693 45.5065 67.9708 42.4903C63.4595 39.4613 60.9718 37.5214 59.8053 32.2367C58.7612 27.532 59.135 22.7887 65.5734 22.7951C72.1599 22.7951 74.2222 27.4998 75.0794 31.3667L75.4983 33.2743H70.0396L69.6529 31.5149C69.0986 29.0272 68.3446 27.5256 66.5143 27.5256C64.684 27.5256 64.6066 29.0788 65.1287 31.444C65.6894 33.9704 66.437 35.1949 70.0911 37.4956C76.3103 41.4398 78.4564 43.7342 79.7776 49.7085C80.9055 54.7676 80.1965 59.569 73.5391 59.569L73.5455 59.5625Z" fill="#000045"/>
</svg>
